# xmcd
#
# Track frame offsets: 
#        150
#        15938
#        28358
#        42442
#        56041
#        69392
#        81177
#        93028
#        105523
#        124265
#        139537
#        150845
#        171471
#        182588
#        195827
#        208324
#        222936
#        237971
#        251063
#        263461
#        275088
#        288788
#        303252
#        313013
#
# Disc length: 4335 seconds
#
# Revision: 0
# Processed by: cddbd v1.5.1PL2 Copyright (c) Steve Scherf et al.
# Submitted via: ExactAudioCopy v0.95b4
#
DISCID=4b10ed18
DTITLE=Various Artist - Can't Be Satisfied
DYEAR=2000
DGENRE=Blues
TTITLE0=Muddy Waters - I Can't Be Satisfied (1976) (Produced by Johnny
TTITLE0=Winter)
TTITLE1=John Lee Hooker - Crawlin' King Snake
TTITLE2=Howlin' Wolf - Smokestake Lightnin'
TTITLE3=Blind Willie Johnson - God Moves on the Water
TTITLE4=Muddy Waters - Rollin' and Tumblin'
TTITLE5=Muddy Waters - You Gonna Miss Me
TTITLE6=John Lee Hooker - Boogie Chillun
TTITLE7=Howlin' Wolf - Spoonful
TTITLE8=Leadbelly - CC Rider
TTITLE9=Blind Willie Johnson - Motherless Children
TTITLE10=Robert Johnson - Walking Blues
TTITLE11=Son House - Pearline
TTITLE12=Howlin' Wolf - The Red Rooster
TTITLE13=Howlin' Wolf - Moanin' at Mightnight
TTITLE14=John Lee Hooker - Hard Hearted Woman
TTITLE15=Muddy Waters - Baby Please Don't Go
TTITLE16=Muddy Waters - My Eyes Keep Me in Trouble
TTITLE17=Howlin' Wolf - I ain't Superstitious
TTITLE18=John Lee Hooker - I'm in the Mood
TTITLE19=John Lee Hooker - Little Wheel
TTITLE20=Robert Johnson - Terraplane Blues
TTITLE21=Blind Willie Johnson - Nobody's Fault but Mine
TTITLE22=Son House - Grinnin' in your Face
TTITLE23=Muddy Waters - I Can't Be Satisfied
EXTD=
EXTT0=
EXTT1=
EXTT2=
EXTT3=
EXTT4=
EXTT5=
EXTT6=
EXTT7=
EXTT8=
EXTT9=
EXTT10=
EXTT11=
EXTT12=
EXTT13=
EXTT14=
EXTT15=
EXTT16=
EXTT17=
EXTT18=
EXTT19=
EXTT20=
EXTT21=
EXTT22=
EXTT23=
PLAYORDER=
